<svg width="500" height="500" viewBox="0 0 500 500" fill="none" xmlns="http://www.w3.org/2000/svg">
<path d="M335.148 11.7828C353.219 12.9206 370.049 20.6152 385.641 34.8669C401.233 49.1186 414.932 67.5453 426.738 90.1472C438.544 112.749 449.774 139.222 460.43 169.565C471.085 199.909 470.559 229.798 458.852 259.232C447.144 288.666 433.602 315.35 418.225 339.285C402.848 363.219 384.93 384.047 364.473 401.77C344.015 419.492 324.153 413.916 304.887 385.042C285.62 356.167 265.842 342.653 245.552 344.5C225.262 346.346 206.659 338.099 189.743 319.759C172.827 301.419 160.814 277.629 153.702 248.39C146.591 219.151 145.922 189.4 151.697 159.139C157.472 128.877 163.052 96.9211 168.437 63.2709C173.822 29.6206 189.829 13.6427 216.459 15.3371C243.088 17.0315 265.01 16.5783 282.223 13.9775C299.436 11.3766 317.078 10.6451 335.148 11.7828Z" fill="#51C4D3" fill-opacity="0.18"/>
<path d="M374.068 362.632L371.354 365.121L381.554 366.919L379.855 363.653L374.068 362.632Z" fill="#51C4D3"/>
<path d="M390.197 348.003L369.414 344.338C368.354 344.151 367.344 344.859 367.157 345.918L365.071 357.749C364.884 358.808 365.591 359.819 366.651 360.006L387.434 363.67C388.494 363.857 389.504 363.15 389.691 362.09L391.777 350.26C391.964 349.2 391.256 348.19 390.197 348.003Z" fill="#51C4D3"/>
<path d="M136.5 418C137.881 418 139 419.119 139 420.5C139 421.881 137.881 423 136.5 423C135.119 423 134 421.881 134 420.5C134 419.119 135.119 418 136.5 418Z" fill="#F9AB40" fill-opacity="0.22"/>
<path d="M136.5 403C137.881 403 139 404.119 139 405.5C139 406.881 137.881 408 136.5 408C135.119 408 134 406.881 134 405.5C134 404.119 135.119 403 136.5 403Z" fill="#F9AB40" fill-opacity="0.22"/>
<path d="M136.5 388C137.881 388 139 389.119 139 390.5C139 391.881 137.881 393 136.5 393C135.119 393 134 391.881 134 390.5C134 389.119 135.119 388 136.5 388Z" fill="#F9AB40" fill-opacity="0.22"/>
<path d="M136.5 373C137.881 373 139 374.119 139 375.5C139 376.881 137.881 378 136.5 378C135.119 378 134 376.881 134 375.5C134 374.119 135.119 373 136.5 373Z" fill="#F9AB40" fill-opacity="0.22"/>
<path d="M136.5 358C137.881 358 139 359.119 139 360.5C139 361.881 137.881 363 136.5 363C135.119 363 134 361.881 134 360.5C134 359.119 135.119 358 136.5 358Z" fill="#F9AB40" fill-opacity="0.22"/>
<path d="M136.5 343C137.881 343 139 344.119 139 345.5C139 346.881 137.881 348 136.5 348C135.119 348 134 346.881 134 345.5C134 344.119 135.119 343 136.5 343Z" fill="#F9AB40" fill-opacity="0.22"/>
<path d="M136.5 328C137.881 328 139 329.119 139 330.5C139 331.881 137.881 333 136.5 333C135.119 333 134 331.881 134 330.5C134 329.119 135.119 328 136.5 328Z" fill="#F9AB40" fill-opacity="0.22"/>
<path d="M151.5 418C152.881 418 154 419.119 154 420.5C154 421.881 152.881 423 151.5 423C150.119 423 149 421.881 149 420.5C149 419.119 150.119 418 151.5 418Z" fill="#F9AB40" fill-opacity="0.22"/>
<path d="M151.5 403C152.881 403 154 404.119 154 405.5C154 406.881 152.881 408 151.5 408C150.119 408 149 406.881 149 405.5C149 404.119 150.119 403 151.5 403Z" fill="#F9AB40" fill-opacity="0.22"/>
<path d="M151.5 388C152.881 388 154 389.119 154 390.5C154 391.881 152.881 393 151.5 393C150.119 393 149 391.881 149 390.5C149 389.119 150.119 388 151.5 388Z" fill="#F9AB40" fill-opacity="0.22"/>
<path d="M151.5 373C152.881 373 154 374.119 154 375.5C154 376.881 152.881 378 151.5 378C150.119 378 149 376.881 149 375.5C149 374.119 150.119 373 151.5 373Z" fill="#F9AB40" fill-opacity="0.22"/>
<path d="M151.5 358C152.881 358 154 359.119 154 360.5C154 361.881 152.881 363 151.5 363C150.119 363 149 361.881 149 360.5C149 359.119 150.119 358 151.5 358Z" fill="#F9AB40" fill-opacity="0.22"/>
<path d="M151.5 343C152.881 343 154 344.119 154 345.5C154 346.881 152.881 348 151.5 348C150.119 348 149 346.881 149 345.5C149 344.119 150.119 343 151.5 343Z" fill="#F9AB40" fill-opacity="0.22"/>
<path d="M151.5 328C152.881 328 154 329.119 154 330.5C154 331.881 152.881 333 151.5 333C150.119 333 149 331.881 149 330.5C149 329.119 150.119 328 151.5 328Z" fill="#F9AB40" fill-opacity="0.22"/>
<path d="M166.5 418C167.881 418 169 419.119 169 420.5C169 421.881 167.881 423 166.5 423C165.119 423 164 421.881 164 420.5C164 419.119 165.119 418 166.5 418Z" fill="#F9AB40" fill-opacity="0.22"/>
<path d="M166.5 403C167.881 403 169 404.119 169 405.5C169 406.881 167.881 408 166.5 408C165.119 408 164 406.881 164 405.5C164 404.119 165.119 403 166.5 403Z" fill="#F9AB40" fill-opacity="0.22"/>
<path d="M166.5 388C167.881 388 169 389.119 169 390.5C169 391.881 167.881 393 166.5 393C165.119 393 164 391.881 164 390.5C164 389.119 165.119 388 166.5 388Z" fill="#F9AB40" fill-opacity="0.22"/>
<path d="M166.5 373C167.881 373 169 374.119 169 375.5C169 376.881 167.881 378 166.5 378C165.119 378 164 376.881 164 375.5C164 374.119 165.119 373 166.5 373Z" fill="#F9AB40" fill-opacity="0.22"/>
<path d="M166.5 358C167.881 358 169 359.119 169 360.5C169 361.881 167.881 363 166.5 363C165.119 363 164 361.881 164 360.5C164 359.119 165.119 358 166.5 358Z" fill="#F9AB40" fill-opacity="0.22"/>
<path d="M166.5 343C167.881 343 169 344.119 169 345.5C169 346.881 167.881 348 166.5 348C165.119 348 164 346.881 164 345.5C164 344.119 165.119 343 166.5 343Z" fill="#F9AB40" fill-opacity="0.22"/>
<path d="M166.5 328C167.881 328 169 329.119 169 330.5C169 331.881 167.881 333 166.5 333C165.119 333 164 331.881 164 330.5C164 329.119 165.119 328 166.5 328Z" fill="#F9AB40" fill-opacity="0.22"/>
<path d="M181.5 418C182.881 418 184 419.119 184 420.5C184 421.881 182.881 423 181.5 423C180.119 423 179 421.881 179 420.5C179 419.119 180.119 418 181.5 418Z" fill="#F9AB40" fill-opacity="0.22"/>
<path d="M181.5 403C182.881 403 184 404.119 184 405.5C184 406.881 182.881 408 181.5 408C180.119 408 179 406.881 179 405.5C179 404.119 180.119 403 181.5 403Z" fill="#F9AB40" fill-opacity="0.22"/>
<path d="M181.5 388C182.881 388 184 389.119 184 390.5C184 391.881 182.881 393 181.5 393C180.119 393 179 391.881 179 390.5C179 389.119 180.119 388 181.5 388Z" fill="#F9AB40" fill-opacity="0.22"/>
<path d="M181.5 373C182.881 373 184 374.119 184 375.5C184 376.881 182.881 378 181.5 378C180.119 378 179 376.881 179 375.5C179 374.119 180.119 373 181.5 373Z" fill="#F9AB40" fill-opacity="0.22"/>
<path d="M181.5 358C182.881 358 184 359.119 184 360.5C184 361.881 182.881 363 181.5 363C180.119 363 179 361.881 179 360.5C179 359.119 180.119 358 181.5 358Z" fill="#F9AB40" fill-opacity="0.22"/>
<path d="M181.5 343C182.881 343 184 344.119 184 345.5C184 346.881 182.881 348 181.5 348C180.119 348 179 346.881 179 345.5C179 344.119 180.119 343 181.5 343Z" fill="#F9AB40" fill-opacity="0.22"/>
<path d="M181.5 328C182.881 328 184 329.119 184 330.5C184 331.881 182.881 333 181.5 333C180.119 333 179 331.881 179 330.5C179 329.119 180.119 328 181.5 328Z" fill="#F9AB40" fill-opacity="0.22"/>
<path d="M196.5 418C197.881 418 199 419.119 199 420.5C199 421.881 197.881 423 196.5 423C195.119 423 194 421.881 194 420.5C194 419.119 195.119 418 196.5 418Z" fill="#F9AB40" fill-opacity="0.22"/>
<path d="M196.5 403C197.881 403 199 404.119 199 405.5C199 406.881 197.881 408 196.5 408C195.119 408 194 406.881 194 405.5C194 404.119 195.119 403 196.5 403Z" fill="#F9AB40" fill-opacity="0.22"/>
<path d="M196.5 388C197.881 388 199 389.119 199 390.5C199 391.881 197.881 393 196.5 393C195.119 393 194 391.881 194 390.5C194 389.119 195.119 388 196.5 388Z" fill="#F9AB40" fill-opacity="0.22"/>
<path d="M196.5 373C197.881 373 199 374.119 199 375.5C199 376.881 197.881 378 196.5 378C195.119 378 194 376.881 194 375.5C194 374.119 195.119 373 196.5 373Z" fill="#F9AB40" fill-opacity="0.22"/>
<path d="M196.5 358C197.881 358 199 359.119 199 360.5C199 361.881 197.881 363 196.5 363C195.119 363 194 361.881 194 360.5C194 359.119 195.119 358 196.5 358Z" fill="#F9AB40" fill-opacity="0.22"/>
<path d="M196.5 343C197.881 343 199 344.119 199 345.5C199 346.881 197.881 348 196.5 348C195.119 348 194 346.881 194 345.5C194 344.119 195.119 343 196.5 343Z" fill="#F9AB40" fill-opacity="0.22"/>
<path d="M196.5 328C197.881 328 199 329.119 199 330.5C199 331.881 197.881 333 196.5 333C195.119 333 194 331.881 194 330.5C194 329.119 195.119 328 196.5 328Z" fill="#F9AB40" fill-opacity="0.22"/>
<path d="M455.934 189.351C454.69 189.426 453.604 186.774 452.742 185.746L449.701 190.306L456.13 192.818C456.603 193.002 457.139 192.914 457.527 192.588C458.228 192 458.178 190.906 457.426 190.384L455.934 189.351Z" fill="#51C4D3"/>
<path d="M452.564 187.903C454.01 189.627 456.579 189.851 458.302 188.405L458.852 187.944C460.901 186.225 461.441 183.253 460.09 181.157C459.735 181.735 457.376 180.689 456.828 181.149L452.564 187.903Z" fill="#51C4D3"/>
<path d="M445.993 193.417L454.252 186.487L458.733 182.727C460.107 181.574 460.883 179.973 461.027 178.317C461.132 177.099 460.233 176.025 459.015 175.918L458.206 175.847L458.359 175.861C459.578 175.967 460.334 174.548 459.551 173.607C459.545 173.6 459.539 173.593 459.533 173.585C456.867 170.408 453.172 168.603 449.345 168.248C448.579 168.177 447.899 168.737 447.832 169.504L447.808 169.77C447.885 168.9 447.146 168.178 446.279 168.274L446.279 168.274C443.411 168.59 440.602 169.728 438.226 171.721L437.465 172.36C436.88 172.851 436.804 173.723 437.295 174.309C436.804 173.723 435.931 173.647 435.346 174.138L432.979 176.124C431.216 177.604 429.902 179.467 429.093 181.515C428.754 182.371 429.345 183.311 430.263 183.392L429.778 183.349C429.047 183.285 428.394 183.803 428.288 184.528C427.976 186.651 428.179 188.858 428.908 190.973C430.199 194.651 434.769 195.904 437.756 193.398L438.763 192.553C438.838 192.49 438.951 192.504 439.009 192.583C439.071 192.667 439.136 192.75 439.204 192.831C440.915 194.87 443.956 195.134 445.993 193.417Z" fill="#51C4D3"/>
<path d="M449.345 168.248C448.679 168.186 448.078 168.602 447.888 169.215C451.129 169.87 454.179 171.587 456.469 174.317L456.479 174.329C458.772 177.074 458.411 181.159 455.67 183.459L442.93 194.149C442.765 194.288 442.594 194.414 442.417 194.527C443.664 194.65 444.958 194.289 445.993 193.417L458.733 182.727C460.107 181.574 460.883 179.973 461.027 178.317C461.132 177.099 460.233 176.024 459.015 175.918L458.359 175.861C459.578 175.967 460.333 174.548 459.551 173.607C459.545 173.6 459.539 173.593 459.533 173.585C456.867 170.408 453.172 168.603 449.345 168.248Z" fill="#51C4D3"/>
<path d="M429.915 186.081C429.905 186.385 429.907 186.69 429.921 186.996C429.941 187.433 430.282 187.788 430.718 187.826L430.732 187.827C431.259 187.874 431.704 187.444 431.68 186.915C431.668 186.656 431.666 186.398 431.674 186.14C431.689 185.684 431.355 185.292 430.902 185.24L430.888 185.239C430.38 185.18 429.931 185.569 429.915 186.081Z" fill="#51C4D3"/>
<path d="M433.627 191.109C433.087 190.961 432.659 190.64 432.382 190.137C432.24 189.879 431.982 189.704 431.688 189.678C430.997 189.618 430.517 190.347 430.841 190.961C431.306 191.841 432.009 192.491 433.162 192.807C434.012 193.04 434.88 192.979 435.657 192.646C436.195 192.416 436.356 191.731 435.98 191.282L435.972 191.272C435.727 190.981 435.32 190.875 434.971 191.025C434.554 191.206 434.093 191.236 433.627 191.109Z" fill="#51C4D3"/>
<path d="M448.317 179.05L447.304 179.9L444.082 176.059C443.894 175.836 443.561 175.806 443.338 175.994C443.114 176.181 443.085 176.515 443.273 176.738L446.495 180.579L442.441 183.98L439.218 180.14C439.031 179.916 438.698 179.887 438.474 180.075C438.251 180.262 438.222 180.595 438.409 180.819L441.632 184.659L440.05 185.987C439.399 186.533 438.911 187.203 438.592 187.934L434.971 187.617C434.68 187.592 434.424 187.807 434.399 188.097C434.373 188.388 434.588 188.644 434.879 188.67L438.262 188.966C437.964 190.367 438.23 191.875 439.091 193.117L439.764 192.552C439.831 192.496 439.928 192.501 439.99 192.56C438.709 190.759 439.008 188.24 440.729 186.796L448.996 179.859C449.22 179.671 449.249 179.338 449.061 179.115C448.874 178.891 448.541 178.862 448.317 179.05Z" fill="#51C4D3"/>
<path d="M451.36 182.28C452.684 181.17 453.496 179.61 453.646 177.889L453.848 175.586C453.873 175.295 453.658 175.039 453.368 175.014C453.077 174.988 452.821 175.203 452.795 175.494L452.594 177.797C452.468 179.237 451.789 180.542 450.681 181.471L443.78 187.262C442.926 187.979 442.402 188.985 442.305 190.096L442.282 190.348C442.257 190.639 442.472 190.895 442.763 190.921C442.908 190.933 443.045 190.886 443.148 190.799C443.252 190.712 443.322 190.586 443.335 190.44L443.357 190.188C443.429 189.358 443.821 188.607 444.459 188.071L451.36 182.28Z" fill="#51C4D3"/>
<path d="M457.553 182.64C455.584 182.468 453.667 183.073 452.154 184.343L447.121 188.565C446.898 188.753 446.869 189.086 447.056 189.309C447.244 189.533 447.577 189.562 447.8 189.374L452.833 185.152C454.13 184.063 455.773 183.545 457.46 183.693L458.477 183.782L459.621 182.821L457.553 182.64Z" fill="#51C4D3"/>
<path d="M455.787 176.948C455.762 177.238 455.977 177.494 456.267 177.52C456.412 177.532 456.549 177.485 456.653 177.398C456.756 177.311 456.827 177.185 456.839 177.04L456.957 175.699C457.104 174.016 456.041 172.428 454.429 171.923L453.699 171.694C453.421 171.607 453.124 171.762 453.037 172.04C452.95 172.319 453.105 172.615 453.383 172.702L454.113 172.931C455.255 173.289 456.009 174.414 455.904 175.607L455.787 176.948Z" fill="#51C4D3"/>
<path d="M430.778 183.349C430.132 183.292 429.547 183.69 429.346 184.284L433.026 184.606C433.171 184.619 433.308 184.571 433.411 184.485C433.515 184.398 433.585 184.271 433.598 184.126C433.623 183.835 433.408 183.579 433.118 183.554L430.778 183.349Z" fill="#51C4D3"/>
<path d="M441.221 178.616C441.445 178.429 441.474 178.096 441.286 177.872L438.296 174.308C437.877 173.809 437.181 173.68 436.622 173.957L440.477 178.551C440.665 178.775 440.998 178.804 441.221 178.616Z" fill="#51C4D3"/>
<path d="M447.875 168.338C447.69 168.275 447.489 168.25 447.279 168.273L447.279 168.273C446.139 168.399 445.009 168.654 443.911 169.042C444.737 168.934 445.569 168.895 446.399 168.923C447.169 168.95 447.764 169.61 447.697 170.378L447.459 173.091C447.434 173.382 447.649 173.638 447.939 173.663C448.085 173.676 448.221 173.629 448.325 173.542C448.428 173.455 448.499 173.328 448.512 173.183L448.809 169.77C448.867 169.111 448.457 168.534 447.875 168.338Z" fill="#51C4D3"/>
<path d="M345.713 284.157C344.895 281.696 301.339 224.139 298.363 223.038C298.025 222.887 278.552 236.745 278.552 236.745C277.753 237.82 240.743 229.994 240.743 229.994L240.37 274.643L307.788 273.213C307.788 273.213 316.894 278.543 325.227 282.922C330.353 285.587 334.892 287.897 336.189 288.253C339.583 289.105 346.539 286.6 345.713 284.157Z" fill="#FFD198"/>
<path d="M336.215 288.244C334.91 287.906 330.379 285.632 325.262 282.913C316.938 278.552 307.832 273.186 307.832 273.186L292.828 273.515L269.295 235.626C274.456 236.514 278.303 237.083 278.561 236.745C278.561 236.745 298.016 222.887 298.362 223.038C301.338 224.139 344.895 281.67 345.712 284.148C346.529 286.627 339.582 289.114 336.215 288.244Z" fill="white"/>
<path d="M346.103 284.228C345.215 281.705 301.498 224.193 298.442 223.056C297.287 222.611 287.782 228.501 278.552 236.745L306.811 273.826C306.811 273.826 332.875 287.64 336.358 288.528C339.84 289.416 346.965 286.751 346.103 284.228Z" fill="#F9AB40"/>
<path d="M343.181 285.152C335.612 275.691 305.967 236.816 299.198 226.893C299.144 226.805 299.198 226.769 299.26 226.84C306.971 236.061 336.296 275.176 343.341 285.037C343.483 285.241 343.341 285.375 343.181 285.152Z" fill="#263238"/>
<path d="M331.471 286.369C330.629 285.317 330.014 284.103 329.664 282.802C329.314 281.501 329.236 280.142 329.437 278.809C329.784 276.409 331.04 274.233 332.946 272.733C333.008 272.733 333.088 272.795 333.035 272.848C331.376 274.628 330.34 276.897 330.08 279.316C329.821 281.734 330.353 284.172 331.596 286.263C331.61 286.279 331.617 286.301 331.615 286.322C331.613 286.344 331.603 286.364 331.587 286.378C331.57 286.392 331.549 286.399 331.527 286.398C331.505 286.396 331.485 286.386 331.471 286.369Z" fill="#263238"/>
<path d="M310.071 276.082C307.086 272.262 305.043 266.754 306.376 261.957C306.429 261.77 306.686 261.841 306.722 262.001C307.517 266.723 308.818 271.346 310.604 275.789C310.625 275.857 310.621 275.93 310.594 275.996C310.568 276.062 310.519 276.117 310.456 276.151C310.394 276.186 310.322 276.197 310.252 276.185C310.181 276.172 310.118 276.136 310.071 276.082Z" fill="#263238"/>
<path d="M313.465 278.179C310.48 274.359 308.437 268.851 309.769 264.054C309.822 263.867 310.08 263.938 310.107 264.098C310.91 268.818 312.211 273.44 313.989 277.885C314.018 277.954 314.021 278.031 313.997 278.101C313.972 278.172 313.923 278.231 313.858 278.267C313.793 278.303 313.717 278.315 313.645 278.298C313.572 278.282 313.508 278.239 313.465 278.179Z" fill="#263238"/>
<path d="M316.93 280.275C313.945 276.455 311.901 270.947 313.234 266.15C313.278 265.963 313.545 266.035 313.572 266.194C314.374 270.915 315.676 275.536 317.454 279.982C317.483 280.05 317.486 280.127 317.461 280.198C317.437 280.268 317.388 280.327 317.323 280.364C317.258 280.4 317.182 280.411 317.109 280.395C317.037 280.378 316.973 280.336 316.93 280.275Z" fill="#263238"/>
<path d="M320.358 282.372C317.364 278.552 315.33 273.044 316.663 268.238C316.663 268.06 316.974 268.131 317 268.291C317.799 273.012 319.1 277.634 320.882 282.078C320.911 282.147 320.914 282.224 320.89 282.294C320.866 282.365 320.817 282.424 320.752 282.46C320.687 282.496 320.611 282.508 320.538 282.491C320.465 282.475 320.401 282.432 320.358 282.372Z" fill="#263238"/>
<path d="M291.912 236.31C288.625 231.975 295.368 226.867 298.655 231.211C301.942 235.555 295.199 240.654 291.912 236.31Z" fill="#263238"/>
<path d="M308.374 283.473C309.475 279.351 308.747 274.892 308.56 270.699C308.548 270.607 308.514 270.519 308.462 270.443C308.409 270.366 308.34 270.303 308.259 270.258C308.178 270.213 308.087 270.188 307.995 270.184C307.902 270.181 307.81 270.199 307.725 270.237C307.713 270.222 307.697 270.21 307.68 270.202C307.662 270.193 307.643 270.189 307.623 270.189C307.604 270.189 307.584 270.193 307.567 270.202C307.549 270.21 307.533 270.222 307.521 270.237C304.196 273.214 301.712 277.013 300.316 281.252C299.552 283.74 299.845 287.4 302.981 288.12C305.886 288.768 307.725 285.881 308.374 283.473ZM305.309 286.085C300.823 288.892 301.16 282.656 301.8 280.844C302.234 279.683 302.745 278.553 303.328 277.459C304.573 275.216 305.931 273.036 307.397 270.93C307.397 273 307.503 275.052 307.548 277.148C307.601 279.573 307.787 284.539 305.309 286.085Z" fill="#263238"/>
<path d="M294.631 258.368C292.348 260.589 293.991 263.876 295.919 265.617C299.299 268.531 303.386 270.504 307.77 271.338C307.789 271.343 307.809 271.342 307.828 271.337C307.847 271.332 307.865 271.323 307.879 271.31C307.894 271.297 307.906 271.281 307.913 271.263C307.92 271.244 307.923 271.225 307.921 271.205C308.014 271.196 308.104 271.165 308.182 271.114C308.261 271.064 308.327 270.996 308.375 270.916C308.422 270.835 308.45 270.745 308.456 270.651C308.462 270.558 308.446 270.465 308.41 270.379C306.411 266.692 304.732 262.49 301.658 259.523C299.863 257.835 296.799 256.272 294.631 258.368ZM304.234 265.404C305.265 267.181 306.198 269.028 307.29 270.779C304.948 269.731 302.662 268.563 300.441 267.278C299.372 266.648 298.351 265.942 297.385 265.164C295.901 263.947 292.392 258.777 297.687 258.866C300.61 258.919 303.008 263.272 304.234 265.404Z" fill="#263238"/>
<path d="M238.7 216.304H208.442C208.442 216.304 176.79 201.095 151.293 207.198C122.066 214.225 118.326 250.933 140.171 263.912C167.853 280.364 291.033 277.175 291.033 277.175L264.382 232.046C264.382 232.046 223.42 223.42 186.277 224.672L238.691 231.779L238.7 216.304Z" fill="black"/>
<path d="M266.177 234.986C266.146 234.913 266.128 234.835 266.123 234.755L266.07 234.56C266.07 234.418 265.999 234.275 265.955 234.124C265.868 233.822 265.765 233.526 265.644 233.236C265.537 232.943 265.404 232.659 265.271 232.348C265.125 232.069 264.959 231.802 264.773 231.548C264.773 231.548 264.729 231.548 264.702 231.548C264.687 231.544 264.672 231.544 264.658 231.548C264.658 231.548 264.613 231.548 264.587 231.548C264.566 231.543 264.545 231.543 264.524 231.548C260.02 230.66 229.407 226.325 224.859 225.809C220.31 225.294 215.664 224.859 211.062 224.477C201.879 223.679 192.661 223.347 183.443 223.482C182.555 223.482 181.72 223.526 180.858 223.562C180.672 223.5 180.476 223.464 180.29 223.42C179.845 223.313 179.401 223.206 178.957 223.118C178.131 222.958 177.287 222.833 176.452 222.709C174.675 222.442 172.96 222.256 171.228 221.936C171.207 221.936 171.187 221.944 171.172 221.959C171.157 221.974 171.148 221.995 171.148 222.016C171.148 222.037 171.157 222.058 171.172 222.073C171.187 222.088 171.207 222.096 171.228 222.096C173.005 222.478 174.693 222.984 176.434 223.366C176.94 223.473 177.438 223.588 177.944 223.686C174.568 223.864 171.193 224.121 167.826 224.432C167.808 224.438 167.792 224.449 167.782 224.465C167.771 224.48 167.765 224.498 167.765 224.517C167.765 224.535 167.771 224.554 167.782 224.569C167.792 224.584 167.808 224.595 167.826 224.601C172.41 224.326 177.029 224.29 181.631 224.37C186.233 224.45 190.746 224.548 195.303 224.814C204.524 225.338 213.728 226.165 222.913 227.124C228.066 227.666 259.274 232.223 264.444 232.454H264.507C264.551 232.57 264.595 232.694 264.649 232.81C264.791 233.085 264.933 233.369 265.093 233.636C265.233 233.904 265.387 234.165 265.555 234.418C265.635 234.542 265.715 234.666 265.804 234.791L265.937 234.977C265.989 235.037 266.034 235.102 266.07 235.173C266.061 235.164 266.239 235.093 266.177 234.986Z" fill="#455A64"/>
<path d="M281.43 274.456C279.778 271.791 278.374 269.011 276.864 266.292C275.353 263.574 273.834 260.838 272.315 258.11C269.286 252.674 258.412 234.391 257.337 233.112C257.266 233.032 257.133 233.112 257.16 233.218C257.675 234.631 264.462 246.739 266.043 249.431C269.17 254.832 272.449 260.091 275.691 265.422C276.579 266.941 277.566 268.442 278.507 269.961C279.449 271.48 280.444 272.955 281.297 274.51C281.332 274.643 281.483 274.554 281.43 274.456Z" fill="#455A64"/>
<path d="M257.027 237.66C254.308 237.003 251.528 236.585 248.783 236.061C246.038 235.537 243.275 235.022 240.521 234.515C235.013 233.491 229.493 232.511 223.962 231.575C212.946 229.727 201.877 228.181 190.746 227.133C184.465 226.529 178.175 226.138 171.877 225.676C171.744 225.676 171.753 225.871 171.877 225.88C183.079 226.387 194.273 227.906 205.368 229.496C216.464 231.086 227.329 232.81 238.238 234.657C241.329 235.179 244.421 235.709 247.512 236.248C250.648 236.789 253.784 237.456 256.938 237.856C257.098 237.856 257.151 237.687 257.027 237.66Z" fill="#455A64"/>
<path d="M288.333 431.013C285.667 430.747 219.697 401.093 217.894 398.366C217.201 397.344 220.959 387.474 225.889 375.686C226.938 373.145 228.048 370.524 229.185 367.868C236.532 350.607 244.74 332.467 244.74 332.467L288.937 352.18L272.164 387.03L268.486 394.688C268.486 394.688 288.67 417.341 290.331 420.539C291.993 423.737 290.989 431.28 288.333 431.013Z" fill="#FFD198"/>
<path d="M288.332 431.013C285.667 430.746 219.697 401.093 217.894 398.366C217.059 397.113 222.78 382.81 229.141 367.868L272.12 387.03L268.442 394.688C268.442 394.688 288.626 417.341 290.287 420.539C291.948 423.737 290.989 431.279 288.332 431.013Z" fill="white"/>
<path d="M288.333 431.013C285.667 430.746 219.697 401.093 217.894 398.366C217.201 397.344 220.959 387.474 225.889 375.686L268.486 394.688C268.486 394.688 288.67 417.341 290.331 420.539C291.993 423.737 290.989 431.279 288.333 431.013Z" fill="#F9AB40"/>
<path d="M288.59 427.948C277.654 422.707 233.031 402.585 221.82 398.241C221.731 398.241 221.705 398.241 221.82 398.303C232.552 403.74 277.325 423.497 288.536 428.135C288.732 428.224 288.803 428.064 288.59 427.948Z" fill="#263238"/>
<path d="M287.107 416.257C285.89 415.674 284.566 415.35 283.217 415.304C281.868 415.258 280.525 415.492 279.271 415.991C277.012 416.87 275.177 418.585 274.146 420.779C274.146 420.85 274.243 420.903 274.279 420.841C275.641 418.821 277.621 417.296 279.922 416.495C282.224 415.694 284.723 415.661 287.045 416.399C287.062 416.402 287.08 416.399 287.096 416.391C287.112 416.382 287.124 416.369 287.131 416.353C287.138 416.336 287.14 416.318 287.135 416.301C287.131 416.283 287.121 416.268 287.107 416.257Z" fill="#263238"/>
<path d="M272.236 397.717C267.839 395.665 262.002 394.919 257.623 397.308C257.454 397.397 257.623 397.637 257.756 397.628C262.536 397.339 267.334 397.562 272.067 398.294C272.141 398.309 272.218 398.295 272.282 398.256C272.347 398.217 272.394 398.155 272.415 398.083C272.437 398.01 272.43 397.933 272.397 397.865C272.364 397.797 272.306 397.745 272.236 397.717Z" fill="#263238"/>
<path d="M275.061 400.586C270.619 398.534 264.827 397.788 260.447 400.178C260.278 400.267 260.447 400.506 260.571 400.498C265.355 400.208 270.156 400.432 274.892 401.164C274.966 401.178 275.043 401.165 275.107 401.125C275.171 401.086 275.219 401.025 275.24 400.952C275.261 400.88 275.254 400.802 275.221 400.735C275.188 400.667 275.131 400.614 275.061 400.586Z" fill="#263238"/>
<path d="M277.877 403.456C273.48 401.404 267.643 400.658 263.263 403.038C263.095 403.136 263.263 403.376 263.388 403.367C268.171 403.078 272.972 403.301 277.708 404.033C277.782 404.048 277.859 404.034 277.923 403.995C277.988 403.956 278.035 403.894 278.056 403.822C278.077 403.749 278.071 403.672 278.038 403.604C278.004 403.536 277.947 403.484 277.877 403.456Z" fill="#263238"/>
<path d="M280.692 406.325C276.295 404.273 270.458 403.527 266.079 405.908C265.91 406.005 266.079 406.245 266.212 406.236C270.993 405.948 275.79 406.171 280.523 406.903C280.597 406.917 280.674 406.904 280.739 406.864C280.803 406.825 280.85 406.763 280.871 406.691C280.893 406.619 280.886 406.541 280.853 406.473C280.82 406.406 280.762 406.353 280.692 406.325Z" fill="#263238"/>
<path d="M229.345 389.002C224.371 386.781 220.915 394.51 225.899 396.731C230.882 398.952 234.329 391.223 229.345 389.002Z" fill="#263238"/>
<path d="M282.371 388.052C280.959 385.191 277.326 385.733 275.078 387.048C271.258 389.361 268.114 392.639 265.963 396.553C265.953 396.571 265.947 396.591 265.946 396.611C265.944 396.631 265.948 396.652 265.955 396.671C265.963 396.689 265.975 396.706 265.99 396.72C266.005 396.733 266.024 396.743 266.043 396.749C265.999 397.104 266.248 397.539 266.683 397.459C270.814 396.695 275.327 396.393 279.12 394.386C281.27 393.213 283.66 390.761 282.371 388.052ZM272.706 395.025C270.681 395.443 268.655 395.771 266.647 396.269C268.368 394.364 270.186 392.55 272.093 390.832C273.026 390.01 274.015 389.253 275.051 388.567C276.668 387.536 282.673 385.795 280.95 390.805C279.964 393.577 275.087 394.519 272.67 395.025H272.706Z" fill="#263238"/>
<path d="M254.193 393.258C257.746 395.576 262.25 396.269 266.301 397.38C266.719 397.495 267.012 397.086 266.994 396.722C267.014 396.72 267.033 396.713 267.049 396.702C267.066 396.691 267.079 396.676 267.089 396.659C267.099 396.641 267.104 396.622 267.104 396.602C267.105 396.582 267.101 396.562 267.092 396.544C265.285 392.459 262.436 388.921 258.83 386.284C256.698 384.791 253.118 383.93 251.475 386.666C249.92 389.251 252.096 391.898 254.193 393.258ZM252.647 389.535C251.359 384.392 257.196 386.648 258.724 387.812C259.698 388.583 260.618 389.42 261.478 390.317C263.23 392.191 264.885 394.154 266.435 396.198C264.48 395.532 262.481 395.034 260.5 394.421C258.146 393.755 253.358 392.369 252.647 389.535Z" fill="#263238"/>
<path d="M230.145 363.817L279.893 386.293C279.893 386.293 339.067 272.724 340.613 237.936C341.928 208.353 321.335 196.937 254.752 216.073L238.442 216.277V227.533C245.602 228.474 264.702 231.477 264.702 231.477C278.596 236.718 283.073 238.886 282.851 239.339C248.152 309.36 230.145 363.817 230.145 363.817Z" fill="black"/>
<path d="M290.953 226.884C288.946 229.549 287.089 232.339 285.312 235.182C274.652 230.429 263.005 227.684 251.439 226.254C248.17 225.857 244.886 225.561 241.587 225.365C241.454 225.365 241.463 225.57 241.587 225.578C253.292 226.398 264.859 228.599 276.047 232.135C279.147 233.094 282.176 234.196 285.232 235.288C283.1 238.7 281.084 242.2 279.156 245.718C275.551 252.3 272.307 259.074 269.437 266.008C267.838 269.846 266.283 273.71 264.906 277.637C264.906 277.752 265.057 277.823 265.102 277.717C271.178 264.172 277.809 250.918 284.992 237.953C287.018 234.293 289.132 230.687 291.113 227C291.184 226.902 291.024 226.742 290.953 226.884Z" fill="#455A64"/>
<path d="M280.942 374.273C278.037 373.145 275.23 371.732 272.396 370.453L263.859 366.624C258.173 364.083 238.522 355.964 236.897 355.555C236.79 355.555 236.737 355.688 236.817 355.742C238.078 356.568 250.755 362.209 253.625 363.435C259.364 365.896 265.173 368.17 270.939 370.542C272.591 371.208 274.253 371.839 275.914 372.487C277.575 373.136 279.254 373.731 280.88 374.469C280.977 374.477 281.04 374.309 280.942 374.273Z" fill="#455A64"/>
<path d="M290.705 232.01C286.787 239.464 283.447 247.264 280.044 254.966C276.642 262.668 273.355 270.343 270.148 278.063C263.77 293.497 257.829 309.103 252.327 324.88C249.2 333.764 246.278 342.79 243.444 351.798C243.399 351.931 243.604 351.975 243.648 351.851C248.916 335.914 254.619 320.118 260.571 304.43C266.524 288.741 272.831 273.266 279.511 257.906C281.389 253.595 283.293 249.298 285.224 245.016C287.16 240.725 289.177 236.461 290.989 232.126C291.042 231.984 290.803 231.833 290.705 232.01Z" fill="#455A64"/>
<path d="M206.932 215.362C208.025 216.517 277.113 218.098 277.468 217.663C278.41 216.473 269.473 172.623 262.268 155.86C253.056 134.352 247.806 132.442 244.705 131.163C240.743 129.528 233.53 129.91 231.789 130.639C229.807 131.447 221.235 141.068 218.659 148.841C213.497 164.468 205.973 214.349 206.932 215.362Z" fill="#51C4D3"/>
<path d="M250.337 134.992H227.195C227.622 134.494 228.084 134.024 228.439 133.597H248.872C249.325 133.988 249.813 134.45 250.337 134.992ZM253.251 138.634H224.308L223.322 140.02H254.184C253.864 139.534 253.553 139.072 253.251 138.634ZM256.369 143.662H221.075C220.808 144.124 220.559 144.551 220.319 145.048H257.16L256.369 143.662ZM258.99 148.699H218.711L218.658 148.842C218.525 149.232 218.401 149.65 218.267 150.085H259.656C259.434 149.606 259.212 149.152 258.99 148.699ZM261.335 153.728H217.246C217.13 154.172 217.006 154.616 216.89 155.113H261.939L261.335 153.728ZM263.432 158.756H216.011C215.913 159.218 215.807 159.644 215.7 160.15H263.947C263.778 159.671 263.601 159.227 263.432 158.756ZM265.209 163.793H214.927C214.82 164.255 214.723 164.717 214.634 165.179H265.662L265.209 163.793ZM266.781 168.821H213.888C213.799 169.283 213.701 169.709 213.612 170.207H267.19C267.047 169.736 266.914 169.274 266.772 168.821H266.781ZM268.229 173.858H212.919C212.83 174.32 212.751 174.746 212.662 175.244H268.629C268.478 174.782 268.353 174.329 268.22 173.858H268.229ZM269.588 178.886H212.004C211.915 179.348 211.836 179.774 211.756 180.272H269.935C269.819 179.81 269.704 179.348 269.579 178.886H269.588ZM270.876 183.914H211.125L210.885 185.309H271.205C271.09 184.847 270.974 184.376 270.867 183.914H270.876ZM272.093 188.951H210.281C210.21 189.413 210.13 189.84 210.059 190.337H272.404L272.093 188.951ZM273.248 193.979H209.526L209.313 195.365H273.595C273.488 194.903 273.346 194.441 273.239 193.979H273.248ZM274.359 199.008H208.717C208.646 199.478 208.584 199.949 208.513 200.402H274.643L274.359 199.008ZM275.407 204.045H208.007C207.936 204.524 207.873 204.986 207.82 205.43H275.665C275.585 204.977 275.487 204.533 275.398 204.045H275.407ZM276.375 209.073H207.349C207.296 209.561 207.243 210.032 207.198 210.467H276.615C276.535 210.023 276.455 209.552 276.366 209.073H276.375ZM277.264 214.11H206.861C206.795 214.527 206.816 214.954 206.923 215.362C207.051 215.436 207.193 215.481 207.34 215.496H277.397C277.353 215.087 277.29 214.625 277.219 214.11H277.264Z" fill="#51C4D3"/>
<path d="M256.157 137.017C285.952 159.404 311.715 190.479 309.245 200.322C306.625 210.725 286.032 222.363 267.839 224.735C264.116 225.223 252.594 197.906 256.405 196.653C259.381 195.676 272.902 191.829 274.519 189.982C275.638 188.694 254.664 159.182 247.868 143.787C240.69 127.609 248.179 130.985 256.157 137.017Z" fill="#FFD198"/>
<path d="M264.09 195.792C264.09 195.792 252.719 196.929 245.319 198.03C241.188 198.643 234.205 200.322 231.38 202.161C227.152 204.906 211.215 219.102 214.573 223.038C217.611 226.591 222.204 220.959 222.204 220.959C222.204 220.959 216.607 226.653 220.711 229.265C224.815 231.877 230.11 223.935 230.11 223.935C230.11 223.935 223.749 229.567 228.396 231.93C232.429 233.982 239.482 225.507 239.482 225.507C239.482 225.507 232.153 230.695 236.08 233.201C240.415 235.972 252.586 224.601 252.586 224.601C262.313 225.685 268.31 225.019 275.168 223.1C276.421 222.78 264.09 195.792 264.09 195.792Z" fill="#FFD198"/>
<path d="M228.404 225.854C228.839 225.25 229.292 224.654 229.736 224.077C230.575 222.888 231.483 221.749 232.454 220.666C233.423 219.626 234.436 218.631 235.475 217.663C236.514 216.695 237.794 215.735 238.86 214.687C238.867 214.675 238.876 214.665 238.888 214.657C238.899 214.649 238.913 214.644 238.927 214.643C238.94 214.641 238.954 214.643 238.967 214.648C238.98 214.653 238.992 214.661 239.002 214.671C239.011 214.681 239.018 214.693 239.022 214.707C239.026 214.72 239.026 214.734 239.024 214.748C239.021 214.761 239.016 214.774 239.007 214.785C238.999 214.796 238.988 214.805 238.975 214.811C237.901 215.833 236.887 216.916 235.937 218.054C234.969 219.138 234.018 220.23 233.059 221.323C232.099 222.416 231.131 223.393 230.162 224.432C229.683 224.956 229.274 225.498 228.768 226.031C228.367 226.574 227.921 227.082 227.435 227.55C227.423 227.556 227.41 227.557 227.397 227.556C227.384 227.554 227.372 227.548 227.362 227.54C227.352 227.532 227.344 227.521 227.34 227.509C227.336 227.496 227.335 227.483 227.337 227.47C227.634 226.895 227.991 226.353 228.404 225.854Z" fill="#263238"/>
<path d="M221.075 222.167C222.564 219.911 224.205 217.759 225.988 215.726C227.799 213.707 229.808 211.874 231.984 210.254C232.064 210.201 232.162 210.307 232.1 210.379C230.323 212.404 228.449 214.394 226.61 216.393C225.721 217.37 221.768 221.927 221.28 222.354C221.164 222.46 221.004 222.3 221.075 222.167Z" fill="#263238"/>
<path d="M235.209 229.523C236.65 227.427 238.228 225.43 239.935 223.544C241.849 221.798 243.889 220.195 246.038 218.747C246.118 218.747 246.224 218.8 246.153 218.871C244.243 220.648 242.315 222.354 240.503 224.201C239.615 225.09 236.292 228.91 235.368 229.7C235.288 229.736 235.155 229.62 235.209 229.523Z" fill="#263238"/>
<path d="M289.283 164.557L266.594 179.268C266.594 179.268 249.759 153.203 245.397 140.855C241.036 128.507 246.117 128.48 258.03 137.426C269.943 146.372 289.283 164.557 289.283 164.557Z" fill="#51C4D3"/>
<path d="M254.584 134.992H243.923C243.876 134.528 243.876 134.061 243.923 133.597H252.461C253.056 134.006 253.82 134.477 254.584 134.992ZM259.576 138.634H244.67C244.794 139.078 244.936 139.523 245.105 140.02H261.344L259.576 138.634ZM265.795 143.662H246.491C246.677 144.107 246.882 144.551 247.095 145.048H267.438C266.888 144.577 266.381 144.124 265.786 143.662H265.795ZM271.703 148.699H248.827L249.52 150.085H273.284L271.703 148.699ZM277.415 153.728H251.412C251.661 154.181 251.91 154.616 252.167 155.113H278.943L277.415 153.728ZM282.985 158.756H254.184L254.975 160.15H284.495L282.985 158.756ZM288.448 163.793H257.089C257.364 164.264 257.631 164.726 257.906 165.179H288.368L289.257 164.583L288.448 163.793ZM260.092 168.821L260.927 170.207H280.595L282.727 168.821H260.092ZM263.174 173.858L264.063 175.244H272.875L275.016 173.858H263.174ZM266.346 178.886L266.603 179.295L267.234 178.886H266.346Z" fill="#51C4D3"/>
<path d="M284.148 161.332C275.495 168.217 266.949 172.881 265.253 174.08C265.173 174.133 265.102 174 265.182 173.947C266.905 172.898 276.153 166.093 284.059 161.19C284.148 161.128 284.21 161.27 284.148 161.332Z" fill="#263238"/>
<path d="M268.052 178.291C267.577 178.496 267.117 178.733 266.675 179.001C264.152 174.648 261.433 170.242 258.866 165.907L255.099 159.546C253.802 157.334 252.612 155.024 251.19 152.892C251.187 152.886 251.182 152.88 251.177 152.876C251.171 152.871 251.164 152.868 251.157 152.866C251.15 152.863 251.143 152.863 251.136 152.864C251.128 152.864 251.121 152.867 251.115 152.87C251.109 152.874 251.103 152.878 251.098 152.884C251.094 152.89 251.09 152.896 251.088 152.903C251.086 152.91 251.085 152.918 251.086 152.925C251.087 152.932 251.089 152.939 251.093 152.946C252.018 155.052 253.05 157.11 254.184 159.111C253.953 158.809 253.731 158.489 253.482 158.222C252.923 157.556 252.372 156.89 251.875 156.179C251.795 156.073 251.608 156.179 251.688 156.286C252.168 156.961 252.576 157.663 253.029 158.373C253.482 159.084 253.918 159.759 254.406 160.443C254.895 161.127 255.375 161.723 255.881 162.336C255.935 162.416 255.995 162.493 256.059 162.567C256.752 163.837 257.427 165.107 258.146 166.36C260.669 170.74 266.399 179.561 266.479 179.534C267.057 179.217 267.607 178.852 268.123 178.442C268.158 178.362 268.158 178.273 268.052 178.291Z" fill="#263238"/>
<path d="M218.828 136.129C194.647 148.69 171.94 163.97 167.676 174.586C165.011 181.267 168.306 193.375 170.998 200.651C172.313 204.204 205.76 190.399 202.979 187.459C196.103 180.192 194.984 177.278 195.739 175.803C196.21 174.862 222.674 151.889 230.101 141.53C240.46 127.103 229.408 130.63 218.828 136.129Z" fill="#FFD198"/>
<path d="M215.62 220.266C212.458 222.043 208.744 213.879 208.744 213.879C208.628 215.438 207.968 216.906 206.879 218.027C204.871 219.911 201.042 217.583 201.042 217.583C200.58 219.173 199.652 220.587 198.377 221.643C196.272 223.251 192.07 221.465 192.07 221.465C190.84 222.692 189.209 223.433 187.477 223.553C182.839 223.695 178.904 217.805 176.354 214.092C173.805 210.379 170.082 197.435 169.123 195.045L192.851 178.513C192.851 178.513 209.002 191.945 211.374 196.742C213.364 200.784 220.444 217.557 215.62 220.266Z" fill="#FFD198"/>
<path d="M208.798 213.763C207.75 208.975 205.466 204.426 203.308 200.091C203.254 199.994 203.103 200.091 203.157 200.162C205.404 204.471 206.55 209.481 208.629 213.861C208.646 213.87 208.666 213.874 208.685 213.874C208.704 213.874 208.723 213.868 208.74 213.858C208.757 213.849 208.771 213.835 208.781 213.818C208.791 213.802 208.797 213.783 208.798 213.763Z" fill="#263238"/>
<path d="M201.3 217.29C200.944 216.224 200.451 215.209 199.834 214.27C199.239 213.239 198.635 212.217 198.013 211.196C196.76 209.17 195.463 207.171 194.104 205.208C194.042 205.119 193.9 205.208 193.953 205.288C195.197 207.314 196.414 209.357 197.569 211.427C198.146 212.466 198.715 213.514 199.283 214.554C199.749 215.577 200.327 216.545 201.007 217.441C201.031 217.471 201.065 217.491 201.103 217.499C201.141 217.506 201.18 217.501 201.214 217.483C201.248 217.466 201.276 217.437 201.291 217.402C201.307 217.367 201.31 217.327 201.3 217.29Z" fill="#263238"/>
<path d="M192.016 221.412C191.684 220.448 191.191 219.547 190.559 218.747C189.964 217.859 189.386 216.917 188.782 216.002C187.618 214.163 186.463 212.324 185.371 210.45C185.357 210.436 185.34 210.427 185.321 210.423C185.302 210.42 185.282 210.424 185.265 210.433C185.248 210.442 185.234 210.456 185.226 210.474C185.218 210.491 185.216 210.511 185.22 210.53C186.321 212.44 187.396 214.367 188.516 216.269C189.066 217.157 189.617 218.134 190.177 219.067C190.603 219.963 191.187 220.775 191.9 221.465C191.971 221.465 192.033 221.412 192.016 221.412Z" fill="#263238"/>
<path d="M183.896 154.953L201.602 172.321C201.602 172.321 224.886 151.702 231.628 140.473C238.371 129.244 233.405 128.196 219.929 134.592C206.452 140.988 183.896 154.953 183.896 154.953Z" fill="#FFC727"/>
<path d="M183.896 154.953L201.602 172.321C201.602 172.321 224.886 151.702 231.628 140.473C238.371 129.244 233.405 128.196 219.929 134.592C206.452 140.988 183.896 154.953 183.896 154.953Z" fill="#51C4D3"/>
<path d="M234.578 133.597C234.519 134.071 234.415 134.538 234.267 134.992H219.102L219.929 134.592C220.675 134.237 221.394 133.908 222.087 133.597H234.578ZM212.004 138.634L209.446 140.02H231.895C232.179 139.54 232.446 139.07 232.686 138.634H212.004ZM202.943 143.662L200.518 145.013H228.421C228.786 144.542 229.132 144.124 229.47 143.627L202.943 143.662ZM194.264 148.699L191.945 150.085H224.184C224.593 149.623 225.001 149.197 225.392 148.699H194.264ZM185.895 153.728L183.896 154.953L184.056 155.113H219.52L220.835 153.728H185.895ZM187.77 158.756L189.191 160.15H214.554L215.949 158.756H187.77ZM192.905 163.793L194.317 165.179H209.348L210.814 163.793H192.905ZM198.03 168.821L199.443 170.207H203.947L205.457 168.821H198.03Z" fill="#51C4D3"/>
<path d="M205.28 167.781C197.107 160.834 191.066 153.612 189.662 152.226C189.6 152.155 189.716 152.057 189.778 152.128C191.093 153.567 199.292 161.092 205.413 167.675C205.484 167.755 205.36 167.852 205.28 167.781Z" fill="#263238"/>
<path d="M220.941 144.693C220.053 146.594 219.164 148.486 218.409 150.44C218.409 150.307 218.409 150.183 218.409 150.05C218.505 148.854 218.686 147.666 218.951 146.496C218.951 146.363 218.782 146.301 218.747 146.434C218.48 147.615 218.24 148.815 218.054 149.987C217.956 150.565 217.903 151.142 217.858 151.72C217.862 151.791 217.862 151.862 217.858 151.933C217.853 151.956 217.853 151.981 217.858 152.004C216.97 154.607 216.455 157.272 215.717 159.902C215.714 159.914 215.713 159.928 215.715 159.941C215.716 159.954 215.721 159.967 215.727 159.978C215.734 159.99 215.743 160 215.753 160.008C215.764 160.016 215.776 160.022 215.789 160.026C215.801 160.029 215.815 160.03 215.828 160.029C215.841 160.027 215.854 160.023 215.865 160.016C215.877 160.01 215.887 160.001 215.895 159.99C215.903 159.98 215.909 159.968 215.913 159.955C216.641 157.379 217.69 154.882 218.578 152.368C219.466 149.854 220.23 147.287 221.101 144.755C221.128 144.675 220.977 144.604 220.941 144.693Z" fill="#263238"/>
<path d="M233.396 142.623C237.287 143.689 244.243 137.95 247.077 133.188C247.272 132.86 246.89 129.333 246.633 125.024C246.482 122.359 246.375 119.49 246.473 116.825C246.473 116.274 229.594 120.271 229.594 120.271C230.426 123.643 230.844 127.104 230.837 130.576C230.814 130.941 230.76 131.304 230.678 131.66C230.672 131.722 230.672 131.785 230.678 131.847C230.233 133.908 229.638 141.583 233.396 142.623Z" fill="#FFD198"/>
<path d="M245.443 116.851C244.501 121.293 241.294 132.131 232.357 131.954C231.785 131.957 231.214 131.906 230.651 131.803C230.645 131.74 230.645 131.678 230.651 131.616C230.734 131.26 230.787 130.897 230.811 130.532C230.817 127.056 230.399 123.593 229.567 120.218C229.567 120.218 241.791 117.384 245.443 116.851Z" fill="#263238"/>
<path d="M228.573 107.479C228.653 111.574 225.801 114.959 222.203 115.021C218.605 115.083 215.629 111.832 215.549 107.728C215.47 103.624 218.321 100.248 221.919 100.177C225.517 100.106 228.493 103.375 228.573 107.479Z" fill="#FFC727"/>
<path d="M223.596 116.108C227.599 116.031 230.773 112.271 230.685 107.709C230.598 103.147 227.282 99.5108 223.279 99.5876C219.276 99.6645 216.102 103.425 216.19 107.987C216.277 112.549 219.593 116.185 223.596 116.108Z" fill="#C7C7C7"/>
<path d="M245.612 94.6688C248.375 100.23 248.108 117.66 244.573 122.128C239.447 128.604 229.648 130.772 223.785 124.296C218.108 118.006 218.863 95.2995 222.95 91.0976C228.955 84.9057 241.508 86.4603 245.612 94.6688Z" fill="#FFD198"/>
<path d="M231.877 109.815C231.877 109.815 231.966 109.869 231.966 109.922C231.913 111.095 232.055 112.445 233.112 112.845V112.916C231.815 112.72 231.646 110.917 231.877 109.815Z" fill="#263238"/>
<path d="M232.943 108.59C234.826 108.465 234.933 112.259 233.183 112.374C231.433 112.49 231.353 108.705 232.943 108.59Z" fill="#263238"/>
<path d="M225.312 110.038C225.312 110.038 225.214 110.1 225.223 110.144C225.294 111.317 225.169 112.667 224.121 113.094C224.121 113.094 224.121 113.165 224.121 113.156C225.427 112.934 225.56 111.139 225.312 110.038Z" fill="#263238"/>
<path d="M224.229 108.838C222.337 108.749 222.292 112.543 224.043 112.623C225.793 112.703 225.81 108.918 224.229 108.838Z" fill="#263238"/>
<path d="M234.604 105.551C234.085 105.514 233.569 105.446 233.058 105.347C232.503 105.348 231.963 105.167 231.521 104.832C231.403 104.701 231.332 104.535 231.32 104.36C231.307 104.184 231.353 104.01 231.45 103.863C231.686 103.6 231.989 103.404 232.326 103.296C232.664 103.189 233.024 103.173 233.369 103.251C234.095 103.296 234.777 103.613 235.279 104.139C235.374 104.268 235.432 104.421 235.447 104.581C235.462 104.741 235.433 104.902 235.364 105.047C235.295 105.192 235.187 105.315 235.054 105.404C234.92 105.493 234.764 105.544 234.604 105.551Z" fill="#263238"/>
<path d="M222.408 106.129C222.932 106.022 223.394 105.844 223.9 105.693C224.447 105.612 224.953 105.353 225.339 104.956C225.437 104.808 225.484 104.632 225.471 104.455C225.458 104.278 225.387 104.111 225.268 103.979C224.995 103.753 224.666 103.605 224.316 103.55C223.966 103.496 223.607 103.536 223.278 103.668C222.56 103.818 221.926 104.233 221.501 104.832C221.425 104.976 221.389 105.139 221.399 105.303C221.409 105.466 221.464 105.623 221.558 105.758C221.651 105.892 221.78 105.997 221.93 106.063C222.08 106.128 222.245 106.151 222.408 106.129Z" fill="#263238"/>
<path d="M234.151 120.671C233.876 120.947 233.6 121.337 233.183 121.382C232.746 121.386 232.313 121.298 231.912 121.124C231.912 121.124 231.832 121.124 231.859 121.186C232.034 121.412 232.267 121.587 232.532 121.691C232.798 121.796 233.087 121.827 233.369 121.782C233.606 121.711 233.816 121.573 233.974 121.383C234.133 121.193 234.231 120.961 234.258 120.716C234.275 120.645 234.186 120.627 234.151 120.671Z" fill="#263238"/>
<path d="M229.283 118.672C229.796 119.305 230.463 119.794 231.22 120.094C231.642 120.228 232.095 120.228 232.517 120.094C233.45 119.818 233.45 118.957 233.254 118.228C233.146 117.839 232.994 117.464 232.801 117.109C231.827 117.995 230.593 118.543 229.283 118.672Z" fill="#263238"/>
<path d="M231.22 120.138C231.642 120.272 232.095 120.272 232.517 120.138C233.45 119.863 233.45 119.001 233.254 118.273C232.754 118.307 232.28 118.51 231.91 118.849C231.541 119.188 231.297 119.643 231.22 120.138Z" fill="#FF98B9"/>
<path opacity="0.2" d="M247.468 107.035C246.331 106.822 243.701 102.886 242.573 101.323C241.445 99.7592 241.001 91.4974 240.938 89.6318C242.941 90.8357 244.561 92.5822 245.611 94.6689C246.837 97.1563 247.468 102.016 247.468 107.035Z" fill="#263238"/>
<path d="M226.591 96.0548C227.249 96.8156 228.091 97.396 229.036 97.7411C229.981 98.0862 230.998 98.1846 231.992 98.0269C233.009 97.864 233.967 97.4427 234.774 96.8034C235.581 96.164 236.211 95.3281 236.603 94.3757C236.603 94.3224 236.709 94.3757 236.692 94.3757C236.364 95.4089 235.761 96.3331 234.947 97.0485C234.133 97.764 233.139 98.2436 232.072 98.4356C231.016 98.5694 229.942 98.4232 228.96 98.0116C227.978 97.6 227.121 96.9374 226.475 96.0903C226.404 96.0725 226.529 95.9837 226.591 96.0548Z" fill="#263238"/>
<path d="M232.623 81.45C236.043 81.5122 239.188 83.3866 240.458 85.7053C241.159 87.0254 241.394 88.5436 241.124 90.0138C241.124 90.076 240.991 90.0671 241 90.0138C241.062 88.7123 240.773 87.418 240.163 86.2663C239.554 85.1146 238.646 84.1477 237.535 83.4666C236.321 82.6762 234.939 82.1789 233.499 82.0139C232.059 81.849 230.6 82.0209 229.238 82.516C227.912 82.9764 226.789 83.8882 226.067 85.0923C226.004 85.2167 225.747 85.0923 225.8 85.0034C226.706 82.827 229.514 81.4056 232.623 81.45Z" fill="#263238"/>
<path d="M212.795 88.9833C213.34 87.289 214.471 85.8438 215.984 84.9057C218.071 83.5998 220.426 83.7775 222.798 84.0173C222.869 84.0173 222.86 84.1239 222.798 84.1151C220.79 83.9285 218.747 83.8574 216.908 84.8169C215.384 85.5919 214.178 86.8735 213.496 88.4414C212.842 90.0509 212.79 91.8423 213.35 93.487C213.91 95.1317 215.043 96.5196 216.543 97.3961C217.42 97.8799 218.385 98.1792 219.382 98.2755C220.378 98.3717 221.383 98.2629 222.336 97.9558C222.407 97.9558 222.46 98.0358 222.389 98.0713C221.101 98.544 219.707 98.6481 218.363 98.3718C217.02 98.0956 215.78 97.45 214.783 96.5076C213.786 95.5652 213.072 94.3633 212.72 93.0372C212.369 91.7111 212.395 90.3134 212.795 89.0011V88.9833Z" fill="#263238"/>
<path d="M246.766 98.0622C246.766 98.0622 249.947 91.9147 247.202 88.3968C245.638 86.4069 240.539 86.7267 240.539 86.7267C239.155 84.7107 237.027 83.327 234.622 82.8801C230.34 81.9917 225.286 84.4969 225.286 84.4969C225.286 84.4969 221.208 82.2138 217.433 84.4258C212.165 87.5085 212.911 95.5748 218.268 98.1155C222.034 99.8923 227.089 96.5254 227.089 96.5254C227.578 96.5876 232.615 99.5547 236.355 95.0507C236.355 95.0507 239.455 97.7158 242.2 95.8058C242.638 96.6048 243.311 97.2499 244.128 97.6535C244.945 98.0571 245.866 98.1998 246.766 98.0622Z" fill="black"/>
<path d="M244.297 109.06C244.297 109.06 247.326 103.011 250.018 104.015C252.71 105.018 250.986 113.396 248.241 114.915C247.9 115.134 247.518 115.282 247.119 115.35C246.719 115.418 246.309 115.404 245.915 115.31C245.521 115.215 245.15 115.042 244.824 114.8C244.499 114.558 244.226 114.252 244.021 113.902L244.297 109.06Z" fill="#FFD198"/>
<path d="M249.503 106.404C249.547 106.404 249.565 106.457 249.503 106.484C247.575 107.612 246.775 109.673 246.304 111.752C246.394 111.53 246.53 111.329 246.705 111.165C246.879 111 247.086 110.875 247.313 110.798C247.54 110.721 247.781 110.695 248.02 110.72C248.258 110.745 248.488 110.821 248.694 110.944C248.756 110.944 248.694 111.068 248.694 111.059C248.322 110.993 247.938 111.043 247.595 111.202C247.252 111.361 246.966 111.621 246.775 111.947C246.468 112.511 246.224 113.107 246.047 113.724C245.976 113.929 245.629 113.875 245.674 113.653C245.203 111.032 246.695 107.079 249.503 106.404Z" fill="#263238"/>
<path d="M250.107 103.855C250.107 103.855 250.933 94.9177 248.446 89.9162C245.665 84.3461 233.708 78.8027 225.286 84.4971C225.286 84.4971 238.825 82.4361 244.892 90.2182C247.451 93.4963 247.113 104.015 247.113 104.015L250.107 103.855Z" fill="#C7C7C7"/>
<path d="M256.104 108.681C256.268 104.122 253.158 100.308 249.157 100.164C245.156 100.021 241.779 103.6 241.615 108.16C241.451 112.72 244.562 116.533 248.563 116.677C252.564 116.821 255.94 113.241 256.104 108.681Z" fill="#C7C7C7"/>
<path d="M243.727 107.977C243.576 112.072 246.393 115.501 249.946 115.625C253.499 115.75 256.582 112.543 256.724 108.447C256.866 104.352 254.059 100.923 250.506 100.79C246.952 100.656 243.87 103.881 243.727 107.977Z" fill="#51C4D3"/>
<path d="M249.103 134.423C247.277 136.695 245.325 138.863 243.257 140.917C241.258 142.783 238.815 144.471 236.15 144.737C233.485 145.004 230.82 144.488 229.834 141.255C229.034 138.687 229.141 136.04 229.568 132.735C229.568 132.709 229.557 132.685 229.539 132.666C229.521 132.648 229.496 132.638 229.47 132.638C229.444 132.638 229.419 132.648 229.401 132.666C229.382 132.685 229.372 132.709 229.372 132.735C228.804 136.982 228.235 143.565 232.099 144.995C236.435 146.603 240.645 144.337 243.648 141.335C245.743 139.271 247.607 136.987 249.209 134.521C249.209 134.441 249.138 134.352 249.103 134.423Z" fill="#263238"/>
<path d="M289.61 250.56H200.68V254.55H289.61V250.56Z" fill="#C7C7C7"/>
<path d="M270.57 250.56L273.62 254.55H200.68V250.56H270.57Z" fill="#A6A6A6"/>
<path d="M266.77 254.55H180.1L172.89 195.69H259.56L266.77 254.55Z" fill="#C7C7C7"/>
<g filter="url(#filter0_d)">
<path d="M282 238C282 235.239 284.239 233 287 233H411C413.761 233 416 235.239 416 238V268C416 270.761 413.761 273 411 273H287C284.239 273 282 270.761 282 268V238Z" fill="white"/>
</g>
<path d="M335.281 253.877H333.881V257H332.123V248.469H335.293C336.301 248.469 337.078 248.693 337.625 249.143C338.172 249.592 338.445 250.227 338.445 251.047C338.445 251.629 338.318 252.115 338.064 252.506C337.814 252.893 337.434 253.201 336.922 253.432L338.768 256.918V257H336.881L335.281 253.877ZM333.881 252.453H335.299C335.74 252.453 336.082 252.342 336.324 252.119C336.566 251.893 336.688 251.582 336.688 251.188C336.688 250.785 336.572 250.469 336.342 250.238C336.115 250.008 335.766 249.893 335.293 249.893H333.881V252.453ZM342.594 257.117C341.664 257.117 340.906 256.832 340.32 256.262C339.738 255.691 339.447 254.932 339.447 253.982V253.818C339.447 253.182 339.57 252.613 339.816 252.113C340.062 251.609 340.41 251.223 340.859 250.953C341.312 250.68 341.828 250.543 342.406 250.543C343.273 250.543 343.955 250.816 344.451 251.363C344.951 251.91 345.201 252.686 345.201 253.689V254.381H341.164C341.219 254.795 341.383 255.127 341.656 255.377C341.934 255.627 342.283 255.752 342.705 255.752C343.357 255.752 343.867 255.516 344.234 255.043L345.066 255.975C344.812 256.334 344.469 256.615 344.035 256.818C343.602 257.018 343.121 257.117 342.594 257.117ZM342.4 251.914C342.064 251.914 341.791 252.027 341.58 252.254C341.373 252.48 341.24 252.805 341.182 253.227H343.537V253.092C343.529 252.717 343.428 252.428 343.232 252.225C343.037 252.018 342.76 251.914 342.4 251.914ZM347.756 250.66L347.809 251.369C348.258 250.818 348.865 250.543 349.631 250.543C350.447 250.543 351.008 250.865 351.312 251.51C351.758 250.865 352.393 250.543 353.217 250.543C353.904 250.543 354.416 250.744 354.752 251.146C355.088 251.545 355.256 252.146 355.256 252.951V257H353.557V252.957C353.557 252.598 353.486 252.336 353.346 252.172C353.205 252.004 352.957 251.92 352.602 251.92C352.094 251.92 351.742 252.162 351.547 252.646L351.553 257H349.859V252.963C349.859 252.596 349.787 252.33 349.643 252.166C349.498 252.002 349.252 251.92 348.904 251.92C348.424 251.92 348.076 252.119 347.861 252.518V257H346.168V250.66H347.756ZM358.35 257H356.65V250.66H358.35V257ZM356.551 249.02C356.551 248.766 356.635 248.557 356.803 248.393C356.975 248.229 357.207 248.146 357.5 248.146C357.789 248.146 358.02 248.229 358.191 248.393C358.363 248.557 358.449 248.766 358.449 249.02C358.449 249.277 358.361 249.488 358.186 249.652C358.014 249.816 357.785 249.898 357.5 249.898C357.215 249.898 356.984 249.816 356.809 249.652C356.637 249.488 356.551 249.277 356.551 249.02ZM361.309 250.66L361.361 251.393C361.814 250.826 362.422 250.543 363.184 250.543C363.855 250.543 364.355 250.74 364.684 251.135C365.012 251.529 365.18 252.119 365.188 252.904V257H363.494V252.945C363.494 252.586 363.416 252.326 363.26 252.166C363.104 252.002 362.844 251.92 362.48 251.92C362.004 251.92 361.646 252.123 361.408 252.529V257H359.715V250.66H361.309ZM366.213 253.783C366.213 252.795 366.434 252.008 366.875 251.422C367.32 250.836 367.928 250.543 368.697 250.543C369.314 250.543 369.824 250.773 370.227 251.234V248H371.926V257H370.396L370.314 256.326C369.893 256.854 369.35 257.117 368.686 257.117C367.939 257.117 367.34 256.824 366.887 256.238C366.438 255.648 366.213 254.83 366.213 253.783ZM367.906 253.906C367.906 254.5 368.01 254.955 368.217 255.271C368.424 255.588 368.725 255.746 369.119 255.746C369.643 255.746 370.012 255.525 370.227 255.084V252.582C370.016 252.141 369.65 251.92 369.131 251.92C368.314 251.92 367.906 252.582 367.906 253.906ZM376.156 257.117C375.227 257.117 374.469 256.832 373.883 256.262C373.301 255.691 373.01 254.932 373.01 253.982V253.818C373.01 253.182 373.133 252.613 373.379 252.113C373.625 251.609 373.973 251.223 374.422 250.953C374.875 250.68 375.391 250.543 375.969 250.543C376.836 250.543 377.518 250.816 378.014 251.363C378.514 251.91 378.764 252.686 378.764 253.689V254.381H374.727C374.781 254.795 374.945 255.127 375.219 255.377C375.496 255.627 375.846 255.752 376.268 255.752C376.92 255.752 377.43 255.516 377.797 255.043L378.629 255.975C378.375 256.334 378.031 256.615 377.598 256.818C377.164 257.018 376.684 257.117 376.156 257.117ZM375.963 251.914C375.627 251.914 375.354 252.027 375.143 252.254C374.936 252.48 374.803 252.805 374.744 253.227H377.1V253.092C377.092 252.717 376.99 252.428 376.795 252.225C376.6 252.018 376.322 251.914 375.963 251.914ZM383.293 252.248C383.062 252.217 382.859 252.201 382.684 252.201C382.043 252.201 381.623 252.418 381.424 252.852V257H379.73V250.66H381.33L381.377 251.416C381.717 250.834 382.188 250.543 382.789 250.543C382.977 250.543 383.152 250.568 383.316 250.619L383.293 252.248ZM387.547 255.248C387.547 255.041 387.443 254.879 387.236 254.762C387.033 254.641 386.705 254.533 386.252 254.439C384.744 254.123 383.99 253.482 383.99 252.518C383.99 251.955 384.223 251.486 384.688 251.111C385.156 250.732 385.768 250.543 386.521 250.543C387.326 250.543 387.969 250.732 388.449 251.111C388.934 251.49 389.176 251.982 389.176 252.588H387.482C387.482 252.346 387.404 252.146 387.248 251.99C387.092 251.83 386.848 251.75 386.516 251.75C386.23 251.75 386.01 251.814 385.854 251.943C385.697 252.072 385.619 252.236 385.619 252.436C385.619 252.623 385.707 252.775 385.883 252.893C386.062 253.006 386.363 253.105 386.785 253.191C387.207 253.273 387.562 253.367 387.852 253.473C388.746 253.801 389.193 254.369 389.193 255.178C389.193 255.756 388.945 256.225 388.449 256.584C387.953 256.939 387.312 257.117 386.527 257.117C385.996 257.117 385.523 257.023 385.109 256.836C384.699 256.645 384.377 256.385 384.143 256.057C383.908 255.725 383.791 255.367 383.791 254.984H385.396C385.412 255.285 385.523 255.516 385.73 255.676C385.938 255.836 386.215 255.916 386.562 255.916C386.887 255.916 387.131 255.855 387.295 255.734C387.463 255.609 387.547 255.447 387.547 255.248Z" fill="black"/>
<path d="M309.624 255.938C309.146 256.488 308.668 257.28 308.668 258.247C308.668 258.497 308.871 258.7 309.121 258.7H312.399C312.468 259.173 312.737 259.606 313.174 259.936C313.647 260.295 314.27 260.492 314.928 260.492C315.585 260.492 316.208 260.295 316.682 259.936C317.119 259.606 317.388 259.173 317.457 258.7H320.734C320.985 258.7 321.187 258.497 321.187 258.247C321.187 257.28 320.709 256.488 320.232 255.938H309.624Z" fill="#51C4D3"/>
<path d="M319.485 255.032V252.216C319.485 250.124 318.181 248.344 316.376 247.712V246.94C316.376 246.141 315.726 245.492 314.928 245.492C314.13 245.492 313.481 246.141 313.481 246.94V247.712C311.675 248.344 310.371 250.124 310.371 252.216V255.032H319.485ZM314.387 246.94C314.387 246.641 314.63 246.398 314.928 246.398C315.227 246.398 315.469 246.641 315.469 246.94V247.5C315.292 247.478 315.111 247.466 314.928 247.466C314.745 247.466 314.564 247.478 314.387 247.5V246.94Z" fill="#51C4D3"/>
<g filter="url(#filter1_d)">
<rect x="80" y="98" width="124" height="36" rx="5" fill="white"/>
</g>
<path d="M128.002 114.877H126.602V118H124.844V109.469H128.014C129.021 109.469 129.799 109.693 130.346 110.143C130.893 110.592 131.166 111.227 131.166 112.047C131.166 112.629 131.039 113.115 130.785 113.506C130.535 113.893 130.154 114.201 129.643 114.432L131.488 117.918V118H129.602L128.002 114.877ZM126.602 113.453H128.02C128.461 113.453 128.803 113.342 129.045 113.119C129.287 112.893 129.408 112.582 129.408 112.188C129.408 111.785 129.293 111.469 129.062 111.238C128.836 111.008 128.486 110.893 128.014 110.893H126.602V113.453ZM136.07 118C135.992 117.848 135.936 117.658 135.9 117.432C135.49 117.889 134.957 118.117 134.301 118.117C133.68 118.117 133.164 117.938 132.754 117.578C132.348 117.219 132.145 116.766 132.145 116.219C132.145 115.547 132.393 115.031 132.889 114.672C133.389 114.312 134.109 114.131 135.051 114.127H135.83V113.764C135.83 113.471 135.754 113.236 135.602 113.061C135.453 112.885 135.217 112.797 134.893 112.797C134.607 112.797 134.383 112.865 134.219 113.002C134.059 113.139 133.979 113.326 133.979 113.564H132.285C132.285 113.197 132.398 112.857 132.625 112.545C132.852 112.232 133.172 111.988 133.586 111.812C134 111.633 134.465 111.543 134.98 111.543C135.762 111.543 136.381 111.74 136.838 112.135C137.299 112.525 137.529 113.076 137.529 113.787V116.535C137.533 117.137 137.617 117.592 137.781 117.9V118H136.07ZM134.67 116.822C134.92 116.822 135.15 116.768 135.361 116.658C135.572 116.545 135.729 116.395 135.83 116.207V115.117H135.197C134.35 115.117 133.898 115.41 133.844 115.996L133.838 116.096C133.838 116.307 133.912 116.48 134.061 116.617C134.209 116.754 134.412 116.822 134.67 116.822ZM141.467 116.752C141.779 116.752 142.033 116.666 142.229 116.494C142.424 116.322 142.525 116.094 142.533 115.809H144.121C144.117 116.238 144 116.633 143.77 116.992C143.539 117.348 143.223 117.625 142.82 117.824C142.422 118.02 141.98 118.117 141.496 118.117C140.59 118.117 139.875 117.83 139.352 117.256C138.828 116.678 138.566 115.881 138.566 114.865V114.754C138.566 113.777 138.826 112.998 139.346 112.416C139.865 111.834 140.578 111.543 141.484 111.543C142.277 111.543 142.912 111.77 143.389 112.223C143.869 112.672 144.113 113.271 144.121 114.021H142.533C142.525 113.693 142.424 113.428 142.229 113.225C142.033 113.018 141.775 112.914 141.455 112.914C141.061 112.914 140.762 113.059 140.559 113.348C140.359 113.633 140.26 114.098 140.26 114.742V114.918C140.26 115.57 140.359 116.039 140.559 116.324C140.758 116.609 141.061 116.752 141.467 116.752ZM148.006 118.117C147.076 118.117 146.318 117.832 145.732 117.262C145.15 116.691 144.859 115.932 144.859 114.982V114.818C144.859 114.182 144.982 113.613 145.229 113.113C145.475 112.609 145.822 112.223 146.271 111.953C146.725 111.68 147.24 111.543 147.818 111.543C148.686 111.543 149.367 111.816 149.863 112.363C150.363 112.91 150.613 113.686 150.613 114.689V115.381H146.576C146.631 115.795 146.795 116.127 147.068 116.377C147.346 116.627 147.695 116.752 148.117 116.752C148.77 116.752 149.279 116.516 149.646 116.043L150.479 116.975C150.225 117.334 149.881 117.615 149.447 117.818C149.014 118.018 148.533 118.117 148.006 118.117ZM147.812 112.914C147.477 112.914 147.203 113.027 146.992 113.254C146.785 113.48 146.652 113.805 146.594 114.227H148.949V114.092C148.941 113.717 148.84 113.428 148.645 113.225C148.449 113.018 148.172 112.914 147.812 112.914ZM160.75 110.893H158.137V118H156.379V110.893H153.801V109.469H160.75V110.893ZM164.822 113.248C164.592 113.217 164.389 113.201 164.213 113.201C163.572 113.201 163.152 113.418 162.953 113.852V118H161.26V111.66H162.859L162.906 112.416C163.246 111.834 163.717 111.543 164.318 111.543C164.506 111.543 164.682 111.568 164.846 111.619L164.822 113.248ZM169.141 118C169.062 117.848 169.006 117.658 168.971 117.432C168.561 117.889 168.027 118.117 167.371 118.117C166.75 118.117 166.234 117.938 165.824 117.578C165.418 117.219 165.215 116.766 165.215 116.219C165.215 115.547 165.463 115.031 165.959 114.672C166.459 114.312 167.18 114.131 168.121 114.127H168.9V113.764C168.9 113.471 168.824 113.236 168.672 113.061C168.523 112.885 168.287 112.797 167.963 112.797C167.678 112.797 167.453 112.865 167.289 113.002C167.129 113.139 167.049 113.326 167.049 113.564H165.355C165.355 113.197 165.469 112.857 165.695 112.545C165.922 112.232 166.242 111.988 166.656 111.812C167.07 111.633 167.535 111.543 168.051 111.543C168.832 111.543 169.451 111.74 169.908 112.135C170.369 112.525 170.6 113.076 170.6 113.787V116.535C170.604 117.137 170.688 117.592 170.852 117.9V118H169.141ZM167.74 116.822C167.99 116.822 168.221 116.768 168.432 116.658C168.643 116.545 168.799 116.395 168.9 116.207V115.117H168.268C167.42 115.117 166.969 115.41 166.914 115.996L166.908 116.096C166.908 116.307 166.982 116.48 167.131 116.617C167.279 116.754 167.482 116.822 167.74 116.822ZM174.537 116.752C174.85 116.752 175.104 116.666 175.299 116.494C175.494 116.322 175.596 116.094 175.604 115.809H177.191C177.188 116.238 177.07 116.633 176.84 116.992C176.609 117.348 176.293 117.625 175.891 117.824C175.492 118.02 175.051 118.117 174.566 118.117C173.66 118.117 172.945 117.83 172.422 117.256C171.898 116.678 171.637 115.881 171.637 114.865V114.754C171.637 113.777 171.896 112.998 172.416 112.416C172.936 111.834 173.648 111.543 174.555 111.543C175.348 111.543 175.982 111.77 176.459 112.223C176.939 112.672 177.184 113.271 177.191 114.021H175.604C175.596 113.693 175.494 113.428 175.299 113.225C175.104 113.018 174.846 112.914 174.525 112.914C174.131 112.914 173.832 113.059 173.629 113.348C173.43 113.633 173.33 114.098 173.33 114.742V114.918C173.33 115.57 173.43 116.039 173.629 116.324C173.828 116.609 174.131 116.752 174.537 116.752ZM180.461 115.457L179.852 116.066V118H178.158V109H179.852V113.986L180.18 113.564L181.803 111.66H183.836L181.545 114.303L184.035 118H182.09L180.461 115.457Z" fill="black"/>
<path d="M113.449 116.971L113.81 116.566L115.794 114.339C115.942 114.172 116.016 113.951 115.997 113.729C115.978 113.506 115.869 113.301 115.694 113.162C115.338 112.897 114.837 112.953 114.548 113.291L112.775 115.281C112.728 115.335 112.66 115.368 112.588 115.372C112.517 115.376 112.446 115.352 112.392 115.304L110.772 113.861L109.76 112.959C109.706 112.911 109.635 112.887 109.564 112.891C109.492 112.895 109.425 112.928 109.377 112.981L108.475 113.994L100.93 122.465C100.628 122.791 100.63 123.295 100.934 123.618C101.093 123.775 101.309 123.861 101.532 123.854C101.756 123.848 101.967 123.749 102.115 123.583L109.51 115.279C109.557 115.225 109.625 115.192 109.697 115.188C109.768 115.184 109.839 115.208 109.893 115.256L111.513 116.699L111.918 117.06C112.365 117.458 113.051 117.419 113.449 116.971Z" fill="#51C4D3"/>
<path d="M102.338 113.611C102.695 113.875 103.195 113.819 103.484 113.482L105.257 111.491C105.305 111.437 105.372 111.404 105.444 111.4C105.516 111.396 105.586 111.421 105.64 111.469L107.463 113.092C107.516 113.14 107.587 113.164 107.659 113.16C107.73 113.156 107.798 113.123 107.845 113.07L108.567 112.26C108.615 112.206 108.639 112.135 108.635 112.064C108.631 111.992 108.598 111.925 108.545 111.877L106.52 110.073L106.114 109.712C105.667 109.314 104.981 109.354 104.583 109.801L104.222 110.206L102.238 112.434C102.09 112.601 102.016 112.821 102.035 113.044C102.054 113.266 102.164 113.471 102.338 113.611Z" fill="#51C4D3"/>
<path d="M108.572 122.466C108.27 122.792 108.272 123.296 108.576 123.619C108.735 123.777 108.951 123.862 109.174 123.855C109.397 123.848 109.608 123.749 109.756 123.583L111.742 121.355L112.103 120.951C112.294 120.736 112.392 120.454 112.375 120.166C112.359 119.879 112.229 119.61 112.014 119.419L111.609 119.058L109.584 117.254C109.53 117.207 109.459 117.182 109.388 117.186C109.316 117.191 109.249 117.223 109.201 117.277L108.479 118.087C108.432 118.14 108.407 118.211 108.411 118.283C108.416 118.355 108.448 118.422 108.502 118.47L110.324 120.093C110.378 120.141 110.41 120.208 110.415 120.28C110.419 120.351 110.394 120.422 110.346 120.476L108.572 122.466Z" fill="#51C4D3"/>
<path d="M110.489 111.915C111.384 112.712 112.755 112.632 113.552 111.737C114.349 110.843 114.27 109.471 113.375 108.674C112.481 107.878 111.109 107.957 110.312 108.852C109.93 109.281 109.733 109.845 109.766 110.42C109.8 110.994 110.06 111.532 110.489 111.915Z" fill="#51C4D3"/>
<path d="M100.271 115.447H102.441C102.59 115.447 102.712 115.326 102.712 115.176C102.712 115.026 102.59 114.905 102.441 114.905H100.271C100.121 114.905 100 115.026 100 115.176C100 115.326 100.121 115.447 100.271 115.447Z" fill="#51C4D3"/>
<path d="M101.085 116.261C101.085 116.411 101.206 116.532 101.356 116.532H103.526C103.675 116.532 103.797 116.411 103.797 116.261C103.797 116.111 103.675 115.99 103.526 115.99H101.356C101.206 115.99 101.085 116.111 101.085 116.261Z" fill="#51C4D3"/>
<path d="M219 221C219.382 221 219.761 221.031 220.138 221.093C220.515 221.155 220.884 221.248 221.246 221.37C221.608 221.493 221.957 221.644 222.294 221.824C222.632 222.003 222.952 222.209 223.255 222.441C223.558 222.673 223.841 222.929 224.102 223.207C224.364 223.486 224.601 223.783 224.813 224.101C225.026 224.418 225.212 224.75 225.37 225.098C225.528 225.445 225.658 225.803 225.757 226.172L222.379 227.086C222.329 226.902 222.264 226.723 222.185 226.549C222.106 226.375 222.013 226.209 221.907 226.05C221.8 225.892 221.682 225.743 221.551 225.604C221.42 225.464 221.279 225.337 221.127 225.221C220.976 225.105 220.816 225.002 220.647 224.912C220.479 224.822 220.304 224.746 220.123 224.685C219.942 224.624 219.758 224.578 219.569 224.546C219.381 224.515 219.191 224.5 219 224.5V221H219Z" fill="#51C4D3"/>
<path d="M225.657 225.837C225.775 226.2 225.863 226.57 225.92 226.948C225.978 227.326 226.004 227.705 225.999 228.087C225.994 228.469 225.959 228.848 225.892 229.224C225.825 229.6 225.728 229.968 225.601 230.328C225.474 230.689 225.319 231.036 225.135 231.371C224.951 231.706 224.741 232.023 224.505 232.323C224.269 232.624 224.01 232.903 223.728 233.161C223.447 233.419 223.146 233.652 222.826 233.861L220.913 230.93C221.073 230.826 221.223 230.71 221.364 230.58C221.505 230.451 221.635 230.312 221.752 230.161C221.87 230.012 221.975 229.853 222.067 229.685C222.159 229.518 222.237 229.344 222.301 229.164C222.364 228.984 222.413 228.8 222.446 228.612C222.479 228.424 222.497 228.235 222.5 228.043C222.502 227.852 222.489 227.662 222.46 227.474C222.432 227.285 222.388 227.1 222.329 226.918L225.657 225.837Z" fill="#3AA2B7"/>
<path d="M223.114 233.663C222.805 233.888 222.48 234.086 222.139 234.257C221.797 234.428 221.444 234.57 221.08 234.684C220.715 234.797 220.343 234.881 219.965 234.933C219.587 234.986 219.207 235.008 218.825 234.998C218.443 234.988 218.064 234.948 217.689 234.876C217.314 234.805 216.947 234.703 216.589 234.572C216.23 234.44 215.885 234.28 215.552 234.092C215.22 233.904 214.905 233.69 214.607 233.45L216.804 230.725C216.952 230.845 217.11 230.952 217.276 231.046C217.442 231.14 217.615 231.22 217.794 231.286C217.974 231.351 218.157 231.402 218.344 231.438C218.532 231.474 218.721 231.494 218.912 231.499C219.103 231.504 219.293 231.493 219.482 231.466C219.671 231.44 219.857 231.398 220.04 231.342C220.222 231.285 220.398 231.214 220.569 231.128C220.74 231.043 220.902 230.944 221.057 230.832L223.114 233.663Z" fill="#27819A"/>
<path d="M214.885 233.663C214.576 233.439 214.288 233.191 214.019 232.919C213.751 232.647 213.507 232.355 213.286 232.043C213.065 231.732 212.871 231.404 212.704 231.061C212.538 230.717 212.4 230.362 212.291 229.996C212.182 229.63 212.103 229.258 212.055 228.879C212.007 228.5 211.991 228.119 212.005 227.738C212.019 227.356 212.065 226.978 212.141 226.604C212.217 226.23 212.323 225.864 212.459 225.507L215.73 226.754C215.662 226.932 215.609 227.115 215.571 227.302C215.532 227.489 215.51 227.678 215.503 227.869C215.496 228.06 215.504 228.25 215.528 228.44C215.552 228.629 215.591 228.815 215.646 228.998C215.7 229.181 215.769 229.359 215.853 229.531C215.936 229.702 216.033 229.866 216.143 230.022C216.254 230.178 216.376 230.324 216.51 230.46C216.644 230.595 216.789 230.72 216.943 230.832L214.885 233.663Z" fill="#16627C"/>
<path d="M212.343 225.837C212.456 225.488 212.596 225.149 212.763 224.822C212.93 224.495 213.121 224.182 213.337 223.885C213.553 223.588 213.791 223.31 214.051 223.05C214.31 222.791 214.589 222.553 214.886 222.337C215.183 222.121 215.495 221.93 215.822 221.763C216.15 221.596 216.488 221.456 216.837 221.342C217.187 221.229 217.543 221.144 217.905 221.086C218.268 221.029 218.633 221 219 221L219 224.5C218.816 224.5 218.634 224.514 218.452 224.543C218.271 224.572 218.093 224.615 217.918 224.671C217.744 224.728 217.575 224.798 217.411 224.881C217.247 224.965 217.091 225.061 216.943 225.169C216.794 225.276 216.655 225.395 216.525 225.525C216.396 225.655 216.277 225.794 216.169 225.943C216.061 226.091 215.965 226.247 215.882 226.411C215.798 226.575 215.728 226.744 215.672 226.918L212.343 225.837Z" fill="#05445E"/>
<path d="M313.781 60.4614L310.594 59.4871L310.74 59.009L310.711 59L310.74 58.991L310.594 58.5129L313.781 57.5386L313.927 58.0167L317.115 57.0425L316.969 56.5643L320.156 55.59L320.302 56.0682L321.896 55.581L322.007 55.5473L322.091 55.4685L323.31 54.3319L322.969 53.9662L325.406 51.6929L325.747 52.0586L328.185 49.7852L327.844 49.4196L330.281 47.1463L330.622 47.5119L330.645 47.491L330.638 47.5209L331.125 47.6334L330.375 50.881L329.888 50.7685L329.138 54.0161L329.625 54.1286L328.875 57.3762L328.388 57.2637L328.013 58.8875L327.987 59L328.013 59.1125L328.388 60.7363L328.875 60.6238L329.625 63.8714L329.138 63.9839L329.888 67.2315L330.375 67.119L331.125 70.3666L330.638 70.4791L330.645 70.509L330.622 70.4881L330.281 70.8537L327.844 68.5804L328.185 68.2148L325.747 65.9414L325.406 66.3071L322.969 64.0338L323.31 63.6681L322.091 62.5315L322.007 62.4527L321.896 62.419L320.302 61.9318L320.156 62.41L316.969 61.4357L317.115 60.9575L313.927 59.9833L313.781 60.4614Z" stroke="#51C4D3" stroke-dasharray="3 3"/>
<path d="M449.781 307.461L446.594 306.487L446.74 306.009L446.711 306L446.74 305.991L446.594 305.513L449.781 304.539L449.927 305.017L453.115 304.042L452.969 303.564L456.156 302.59L456.302 303.068L457.896 302.581L458.007 302.547L458.091 302.469L459.31 301.332L458.969 300.966L461.406 298.693L461.747 299.059L464.185 296.785L463.844 296.42L466.281 294.146L466.622 294.512L466.645 294.491L466.638 294.521L467.125 294.633L466.375 297.881L465.888 297.769L465.138 301.016L465.625 301.129L464.875 304.376L464.388 304.264L464.013 305.887L463.987 306L464.013 306.113L464.388 307.736L464.875 307.624L465.625 310.871L465.138 310.984L465.888 314.231L466.375 314.119L467.125 317.367L466.638 317.479L466.645 317.509L466.622 317.488L466.281 317.854L463.844 315.58L464.185 315.215L461.747 312.941L461.406 313.307L458.969 311.034L459.31 310.668L458.091 309.531L458.007 309.453L457.896 309.419L456.302 308.932L456.156 309.41L452.969 308.436L453.115 307.958L449.927 306.983L449.781 307.461Z" stroke="#51C4D3" stroke-dasharray="3 3"/>
<path d="M108.598 362.252L108.59 362.261L108.583 362.271C104.134 367.968 95.4681 366.537 93.458 359.473L93.4552 359.463L93.4522 359.454C93.3878 359.258 93.3425 359.04 93.3025 358.812C95.6828 358.2 98.0075 357.024 99.8268 355.467C101.76 353.814 103.162 351.695 103.391 349.33L103.391 349.328C103.592 347.154 102.593 345.647 101.095 345.045C99.6324 344.458 97.7961 344.775 96.364 345.994L96.3627 345.995C93.2777 348.64 91.0537 352.485 90.7388 356.627C87.8602 356.915 85.186 356.032 83.6835 353.25C82.3473 350.764 82.5577 347.812 83.7515 345.191C84.9447 342.571 87.0895 340.358 89.5047 339.359C90.0766 339.155 90.21 338.586 90.0972 338.184C90.0394 337.979 89.9102 337.77 89.6977 337.635C89.4749 337.493 89.2033 337.461 88.9354 337.548C85.2225 338.626 82.4448 341.783 81.211 345.402C79.9753 349.027 80.2585 353.205 82.7938 356.337L82.7938 356.337L82.7965 356.341C84.7263 358.682 87.7459 359.481 90.839 359.228C91.4807 363.428 94.7649 366.701 98.5959 367.999L98.5979 368C103.31 369.575 107.592 367.254 110.289 363.621C110.485 363.363 110.54 363.062 110.473 362.783C110.409 362.519 110.246 362.305 110.06 362.161C109.714 361.891 109.052 361.724 108.598 362.252ZM99.4717 352.172C98.0405 353.843 95.7137 355.338 93.2577 356.133C93.5819 354.1 94.585 352.11 95.7601 350.371C96.7361 349.008 97.9313 347.595 99.4037 347.096L99.4037 347.096L99.4092 347.094C99.6851 346.997 99.8694 347.031 100.01 347.106C100.169 347.19 100.327 347.358 100.472 347.617C100.764 348.138 100.906 348.859 100.934 349.309C100.982 350.316 100.279 351.288 99.4823 352.16L99.4769 352.166L99.4717 352.172Z" fill="#51C4D3" stroke="#51C4D3"/>
<circle cx="35" cy="301" r="8.5" fill="white" stroke="#0A5675" stroke-width="3"/>
<rect x="63" y="430" width="21" height="21" fill="white" stroke="#F9AB40" stroke-width="4"/>
<defs>
<filter id="filter0_d" x="242" y="193" width="214" height="120" filterUnits="userSpaceOnUse" color-interpolation-filters="sRGB">
<feFlood flood-opacity="0" result="BackgroundImageFix"/>
<feColorMatrix in="SourceAlpha" type="matrix" values="0 0 0 0 0 0 0 0 0 0 0 0 0 0 0 0 0 0 127 0" result="hardAlpha"/>
<feOffset/>
<feGaussianBlur stdDeviation="20"/>
<feColorMatrix type="matrix" values="0 0 0 0 0.0392157 0 0 0 0 0.337255 0 0 0 0 0.458824 0 0 0 0.15 0"/>
<feBlend mode="normal" in2="BackgroundImageFix" result="effect1_dropShadow"/>
<feBlend mode="normal" in="SourceGraphic" in2="effect1_dropShadow" result="shape"/>
</filter>
<filter id="filter1_d" x="40" y="58" width="204" height="116" filterUnits="userSpaceOnUse" color-interpolation-filters="sRGB">
<feFlood flood-opacity="0" result="BackgroundImageFix"/>
<feColorMatrix in="SourceAlpha" type="matrix" values="0 0 0 0 0 0 0 0 0 0 0 0 0 0 0 0 0 0 127 0" result="hardAlpha"/>
<feOffset/>
<feGaussianBlur stdDeviation="20"/>
<feColorMatrix type="matrix" values="0 0 0 0 0.0392157 0 0 0 0 0.337255 0 0 0 0 0.458824 0 0 0 0.15 0"/>
<feBlend mode="normal" in2="BackgroundImageFix" result="effect1_dropShadow"/>
<feBlend mode="normal" in="SourceGraphic" in2="effect1_dropShadow" result="shape"/>
</filter>
</defs>
</svg>
